<svg width="15" height="12" viewBox="0 0 15 12" fill="none" xmlns="http://www.w3.org/2000/svg">
<path d="M13.4144 1C13.815 1 14.1172 1.3222 13.9556 1.92149L11.9947 10.3954C11.8577 10.9979 11.4606 11.1429 10.9124 10.8626L6.23515 7.69533C6.21701 7.6834 6.20224 7.66768 6.19204 7.64947C6.18185 7.63126 6.17653 7.61109 6.17653 7.59062C6.17653 7.57015 6.18185 7.54998 6.19204 7.53177C6.20224 7.51356 6.21701 7.49784 6.23515 7.4859L11.6363 3.01376C11.8823 2.81399 11.5836 2.71733 11.2603 2.89776L4.48163 6.81895C4.46107 6.83124 4.43773 6.83908 4.41337 6.84187C4.38902 6.84466 4.36429 6.84233 4.34106 6.83506L1.46303 6.00056C0.823469 5.82979 0.823469 5.42704 1.60711 5.14028L13.1227 1.06766C13.2141 1.02749 13.3132 1.00448 13.4144 1Z" stroke="black" stroke-linecap="round" stroke-linejoin="round"/>
</svg>
