<svg width="16" height="12" viewBox="0 0 16 12" fill="none" xmlns="http://www.w3.org/2000/svg">
<path fill-rule="evenodd" clip-rule="evenodd" d="M12.1869 10.998C13.8323 11.0579 15.2157 9.77505 15.28 8.12985V3.87015C15.2157 2.225 13.8323 0.942118 12.1869 1.00201H4.09304C2.44773 0.942118 1.06425 2.225 1 3.87015V8.12985C1.06425 9.77505 2.44773 11.0579 4.09304 10.998H12.1869Z" stroke="black" stroke-linecap="round" stroke-linejoin="round"/>
<path fill-rule="evenodd" clip-rule="evenodd" d="M7.78875 3.98297L10.0457 5.51661C10.1919 5.60201 10.2818 5.75859 10.2818 5.92788C10.2818 6.09724 10.1919 6.25382 10.0457 6.33914L7.78875 8.01704C7.36035 8.30763 6.71204 8.05988 6.71204 7.60577V4.39281C6.71204 3.94085 7.36106 3.69237 7.78875 3.98297Z" stroke="black" stroke-linecap="round" stroke-linejoin="round"/>
</svg>
