<svg width="38" height="38" viewBox="0 0 38 38" fill="none" xmlns="http://www.w3.org/2000/svg">
<path d="M9.97463 7.91667H33.25L30.0833 19H11.6798M31.6667 25.3333H12.6667L9.5 4.75H4.75M14.25 31.6667C14.25 32.5411 13.5411 33.25 12.6667 33.25C11.7922 33.25 11.0833 32.5411 11.0833 31.6667C11.0833 30.7922 11.7922 30.0833 12.6667 30.0833C13.5411 30.0833 14.25 30.7922 14.25 31.6667ZM31.6667 31.6667C31.6667 32.5411 30.9578 33.25 30.0833 33.25C29.2089 33.25 28.5 32.5411 28.5 31.6667C28.5 30.7922 29.2089 30.0833 30.0833 30.0833C30.9578 30.0833 31.6667 30.7922 31.6667 31.6667Z" stroke="#272727" stroke-width="2" stroke-linecap="round" stroke-linejoin="round"/>
</svg>
