<svg xmlns="http://www.w3.org/2000/svg" viewBox="0 0 27 27"><defs><style>.cls-1{fill:none;stroke:#000;stroke-linejoin:round;stroke-width:2px;}</style></defs><g id="Слой_2" data-name="Слой 2"><g id="Слой_1-2" data-name="Слой 1"><path class="cls-1" d="M9.33,26H2.39A1.41,1.41,0,0,1,1,24.58V13.79a1.45,1.45,0,0,1,.41-1L12.52,1.42a1.35,1.35,0,0,1,2,0L25.59,12.79a1.45,1.45,0,0,1,.41,1V24.58A1.41,1.41,0,0,1,24.61,26H17.67M9.33,26h8.34M9.33,26V17.47a1.41,1.41,0,0,1,1.39-1.42h5.56a1.41,1.41,0,0,1,1.39,1.42V26"/></g></g></svg>