<svg xmlns="http://www.w3.org/2000/svg" viewBox="0 0 27 23.21"><defs><style>.cls-1{fill:none;stroke:#272727;stroke-linecap:round;stroke-linejoin:round;stroke-width:2px;}</style></defs><g id="Слой_2" data-name="Слой 2"><g id="Слой_1-2" data-name="Слой 1"><path class="cls-1" d="M24.07,2.88a6.44,6.44,0,0,0-2.13-1.39,6.73,6.73,0,0,0-5,0,6.44,6.44,0,0,0-2.13,1.39L13.5,4.11,12.23,2.88a6.69,6.69,0,0,0-9.3,0,6.27,6.27,0,0,0,0,9.05l1.26,1.23,9.31,9.05,9.3-9,1.27-1.23A6.45,6.45,0,0,0,25.5,9.85a6.25,6.25,0,0,0,0-4.9,6.4,6.4,0,0,0-1.43-2.07Z"/></g></g></svg>