<svg width="35" height="30" viewBox="0 0 35 30" fill="none" xmlns="http://www.w3.org/2000/svg">
<path d="M31.4554 3.4754C30.6491 2.69063 29.6917 2.06809 28.638 1.64335C27.5842 1.21861 26.4548 1 25.3142 1C24.1736 1 23.0442 1.21861 21.9905 1.64335C20.9367 2.06809 19.9794 2.69063 19.173 3.4754L17.4996 5.10333L15.8261 3.4754C14.1974 1.89096 11.9883 1.00082 9.68495 1.00082C7.38156 1.00082 5.17251 1.89096 3.54376 3.4754C1.91502 5.05985 1 7.20882 1 9.44957C1 11.6903 1.91502 13.8393 3.54376 15.4237L5.2172 17.0517L17.4996 29L29.782 17.0517L31.4554 15.4237C32.2621 14.6393 32.902 13.708 33.3387 12.6829C33.7753 11.6579 34 10.5592 34 9.44957C34 8.33999 33.7753 7.24129 33.3387 6.21622C32.902 5.19115 32.2621 4.25981 31.4554 3.4754V3.4754Z" stroke="#272727" stroke-width="2" stroke-linecap="round" stroke-linejoin="round"/>
</svg>
