<svg width="45" height="45" viewBox="0 0 45 45" fill="none" xmlns="http://www.w3.org/2000/svg">
<circle cx="22.5" cy="22.5" r="22.5" fill="#F6F6F6"/>
<path fill-rule="evenodd" clip-rule="evenodd" d="M23.9595 20.1657H20.4429C20.3405 20.1657 20.2722 20.2346 20.238 20.338V29.3985C20.238 29.5018 20.3405 29.5707 20.4429 29.5707H23.9595C24.0619 29.5707 24.1302 29.5018 24.1643 29.3985V20.338C24.1643 20.2346 24.0619 20.1657 23.9595 20.1657Z" fill="#FF0000"/>
<path d="M34.8848 14.2747C30.9243 13.4134 26.8615 13 22.7986 13C22.6962 13 22.5597 13 22.4572 13C22.4572 13 22.4231 13 22.3548 13C22.3207 13 22.3207 13 22.3207 13C22.2524 13 22.1841 13 22.15 13C22.0475 13 21.9451 13 21.6037 13C21.5013 13 21.3988 13 21.3306 13C21.0916 13 20.8526 13 20.5794 13C20.238 13 19.8966 13 19.5893 13C19.2138 13 18.8382 13 18.4968 13C18.3944 13 18.2578 13 18.1554 13C17.4384 13 16.7214 13 16.0045 13C15.2533 13 14.5364 13 13.8194 13C13.6828 13 13.5121 13 13.3756 13C13.3073 13.0345 13.239 13.0689 13.1707 13.1378C13.0683 13.2412 13.0341 13.3445 13 13.4134C13 14.7225 13 16.0316 13 17.3408C13 17.4097 13.0341 17.4786 13.0683 17.513C13.1366 17.6164 13.2048 17.6508 13.3414 17.6508C13.4438 17.6508 13.5463 17.5819 13.6145 17.4786C13.8535 17.203 14.0925 16.9274 14.3315 16.6862C14.3657 16.6518 14.5364 16.514 14.7412 16.3073C14.9461 16.135 15.1168 15.9972 15.1509 15.9972C15.2192 15.9627 15.3216 15.8938 15.4923 15.756C15.6289 15.6871 15.7313 15.6182 15.7996 15.5493C16.0045 15.446 16.141 15.3426 16.2435 15.3082C16.4142 15.2048 16.5507 15.1359 16.6532 15.1015C16.7897 15.0326 16.8921 14.9981 16.9604 14.9637C17.0287 14.9292 17.097 14.8948 17.1994 14.8948C17.3018 14.8603 17.3701 14.8603 17.4384 14.8603C17.5067 14.8603 17.575 14.8603 17.7457 14.8603C17.9505 14.8603 17.9847 14.8603 18.0871 14.8603C18.1212 14.8603 18.1212 14.8603 18.2237 14.8603C18.3261 14.8603 18.3944 14.8603 18.4285 14.8603C18.5309 14.8603 18.5992 14.8948 18.6675 14.8948C18.7016 14.8948 18.7699 14.9292 18.8724 14.9637C18.9065 14.9637 18.9406 14.9981 18.9748 14.9981C19.0089 15.0326 19.0772 15.0326 19.1113 15.067C19.1455 15.067 19.2138 15.1015 19.2821 15.1359C19.3162 15.1704 19.3845 15.2048 19.4528 15.2737C19.4869 15.3082 19.5552 15.3426 19.6576 15.4115C19.7259 15.4804 19.76 15.5149 19.7942 15.5493C19.8283 15.5838 19.8966 15.6527 19.9307 15.756C19.999 15.8594 20.0673 15.9627 20.1015 16.0661C20.1356 16.135 20.1697 16.2039 20.1697 16.2728C20.2039 16.4106 20.2039 16.514 20.2039 16.5484C20.2039 16.6173 20.2039 16.6173 20.2039 16.824C20.2039 16.9274 20.2039 17.0307 20.2039 17.0652C20.2039 17.1685 20.2039 17.2719 20.2039 17.3063C20.2039 17.5819 20.2039 17.8231 20.2039 18.0642C20.2039 18.202 20.2039 18.3054 20.2039 18.4432V18.581C20.2039 18.6499 20.238 18.6843 20.2722 18.7188C20.2722 18.7188 20.3063 18.7188 20.3063 18.7532C20.3404 18.7877 20.4087 18.7877 20.4087 18.7877C21.5695 18.7877 22.7645 18.7877 23.9253 18.7877C24.0277 18.7877 24.1302 18.7188 24.1302 18.581V18.3743C24.1302 17.9953 24.1302 17.5819 24.1302 17.1341C24.1302 15.8938 25.1203 15.1015 26.3152 14.8948C26.3835 14.8948 26.4518 14.8603 26.4859 14.8603C28.1247 14.7225 29.7635 14.6881 31.4023 14.6192L34.8165 14.6536C34.9189 14.6536 34.9872 14.5503 34.9872 14.4469C35.0213 14.378 34.9872 14.3091 34.8848 14.2747ZM23.0035 16.2039C22.7986 16.4795 22.4914 16.6518 22.1841 16.6173C21.6037 16.6173 21.1598 16.135 21.194 15.5493C21.194 14.9637 21.672 14.5158 22.2524 14.5503C22.5597 14.5503 22.8328 14.6881 23.0035 14.9292C23.1742 15.1015 23.2425 15.3426 23.2425 15.5838C23.2083 15.8249 23.1401 16.0316 23.0035 16.2039Z" fill="#FF0000"/>
<path fill-rule="evenodd" clip-rule="evenodd" d="M23.9595 30.9832H20.4429C20.3405 30.9832 20.238 31.0521 20.238 31.0866L21.8086 36.5298C21.8427 36.6676 22.0475 36.7365 22.2524 36.7365C22.4231 36.7365 22.5597 36.6331 22.5938 36.5298L24.1643 31.0866C24.1643 31.0177 24.096 30.9832 23.9595 30.9832Z" fill="#FF0000"/>
</svg>
